<?xml version="1.0" encoding="utf-8"?>
<!DOCTYPE svg PUBLIC "-//W3C//DTD SVG 20010904//EN" "http://www.w3.org/TR/2001/REC-SVG-20010904/DTD/svg10.dtd">
<svg version="1.0" xmlns="http://www.w3.org/2000/svg" width="256pt" height="256pt" viewBox="0 0 256 256" style="" preserveAspectRatio="xMidYMid meet">
<g fill="#241F20FF" stroke="#241F20FF">
<path d="M 11.455 30.455 C 9.055 32.854 9.000 33.264 9.000 48.755 C 9.000 65.506 8.618 67.000 4.335 67.000 C 3.090 67.000 1.605 67.870 1.035 68.934 C 0.351 70.213 0.000 93.879 0.000 138.779 C 0.000 202.303 0.114 206.793 1.758 208.281 C 3.299 209.675 9.261 209.920 50.008 210.259 C 100.171 210.676 100.641 210.722 111.709 216.346 C 114.574 217.801 118.624 220.761 120.709 222.922 C 126.797 229.234 128.736 229.178 136.015 222.486 C 148.828 210.707 152.714 210.039 208.595 210.017 C 250.031 210.001 252.790 209.890 254.345 208.171 C 255.851 206.507 256.000 200.181 256.000 137.871 C 256.000 85.949 255.710 69.110 254.800 68.200 C 254.140 67.540 252.655 67.000 251.500 67.000 C 247.399 67.000 247.000 65.380 247.000 48.755 C 247.000 33.264 246.945 32.854 244.545 30.455 L 242.091 28.000 200.795 28.020 C 178.083 28.031 156.425 28.484 152.668 29.027 C 143.301 30.382 136.936 33.348 131.923 38.697 L 127.688 43.216 123.094 38.171 C 114.147 28.346 111.906 28.000 57.271 28.000 L 13.909 28.000 11.455 30.455 M 100.691 43.864 C 107.895 46.517 115.149 52.496 118.292 58.372 C 120.478 62.459 120.502 63.011 120.746 114.500 C 120.881 143.100 121.219 167.481 121.497 168.680 C 122.284 172.071 124.828 174.000 128.515 174.000 C 135.185 174.000 135.000 175.639 135.000 116.459 C 135.000 56.923 135.067 56.259 141.806 48.784 C 148.837 40.986 148.437 41.047 192.715 41.022 C 230.474 41.001 231.968 41.072 232.965 42.934 C 233.650 44.215 234.000 68.510 234.000 114.812 C 234.000 178.616 233.855 184.876 232.348 186.128 C 231.032 187.221 222.458 187.604 190.098 188.015 C 150.735 188.514 149.327 188.599 143.798 190.819 C 140.662 192.077 135.866 195.113 133.140 197.564 L 128.184 202.020 124.157 198.150 C 119.717 193.885 113.375 190.557 106.791 189.039 C 104.372 188.481 85.911 188.038 64.473 188.024 C 31.700 188.003 26.138 187.785 24.223 186.443 L 22.000 184.887 22.000 114.878 C 22.000 67.218 22.340 44.233 23.066 42.876 C 24.106 40.934 25.017 40.893 59.316 41.235 C 92.999 41.570 94.764 41.682 100.691 43.864 "/></g>
</svg>
